<svg width="110" height="110" viewBox="0 0 110 110" fill="none" xmlns="http://www.w3.org/2000/svg">
<rect width="110" height="110" fill="white"/>
<path d="M35.9062 56.5078C35.8867 56.4883 35.8477 56.459 35.7891 56.4199C35.75 56.3809 35.7109 56.332 35.6719 56.2734C35.6719 56.2344 35.7305 56.127 35.8477 55.9512C35.8672 56.0098 35.9062 56.0781 35.9648 56.1562C36.0234 56.2148 36.0527 56.2734 36.0527 56.332C36.0527 56.3516 36.0039 56.4102 35.9062 56.5078ZM30.5156 59.5547C30.6914 59.4766 30.8672 59.418 31.043 59.3789C31.2188 59.3398 31.375 59.291 31.5117 59.2324C31.668 59.1543 31.7852 59.0176 31.8633 58.8223C32.0586 59.0371 32.3223 59.1445 32.6543 59.1445L33.0352 59.1152C33.2305 59.1152 33.4258 59.1641 33.6211 59.2617L34.6758 56.8008C35.0469 56.9961 35.418 57.0938 35.7891 57.0938C36.2578 57.0938 36.7168 56.9375 37.166 56.625L36.9902 57.2402L37.166 57.3574L37.6641 56.8594V56.8301C37.7422 56.9863 37.7812 57.1621 37.7812 57.3574C37.7812 57.5332 37.8105 57.6992 37.8691 57.8555C37.9473 58.0117 38.0938 58.1191 38.3086 58.1777L39.3047 57.709L39.0703 56.5664C39.4414 56.5664 39.6562 56.4004 39.7148 56.0684C39.8516 55.3066 40.0078 54.5547 40.1836 53.8125L40.9453 51.1172C41.3164 49.9062 41.502 49.1543 41.502 48.8613C41.3848 48.4316 41.3262 48.0215 41.3262 47.6309C41.3262 46.9863 41.502 46.3516 41.8535 45.7266C41.9121 45.6289 41.9414 45.5312 41.9414 45.4336C41.9414 45.0039 41.7754 44.5547 41.4434 44.0859C41.1113 43.5977 40.7402 43.2852 40.3301 43.1484L38.8652 42.7969L38.6016 43.2949L38.3086 42.7676L38.3379 42.5039C38.3379 41.7617 37.957 41.3516 37.1953 41.2734C36.5898 41.1953 35.9746 41.1465 35.3496 41.127C35.252 41.127 35.0664 41.2441 34.793 41.4785C34.7539 41.4395 34.7246 41.4004 34.7051 41.3613C34.6855 41.3027 34.6562 41.2539 34.6172 41.2148C34.5781 41.1562 34.5391 41.127 34.5 41.127L33.9141 41.0977C33.1328 41.0977 32.3516 41.1953 31.5703 41.3906L31.5117 41.4492C30.8086 41.8594 30.2422 42.3965 29.8125 43.0605C29.6562 43.2754 29.4902 43.4805 29.3145 43.6758C28.123 45.1016 27.5273 46.6641 27.5273 48.3633C27.5273 49.0078 27.6055 49.6621 27.7617 50.3262C28.1328 51.8691 28.3965 54.1934 28.5527 57.2988C28.5723 58.041 28.9434 58.4805 29.666 58.6172C29.998 58.7344 30.3105 58.8711 30.6035 59.0273L30.5156 59.5547ZM48.4453 57.4453C48.9141 57.1719 49.207 56.918 49.3242 56.6836C49.4414 56.4297 49.5 56.166 49.5 55.8926C49.5 55.7363 49.4805 55.5605 49.4414 55.3652C49.168 55.502 48.9727 55.6289 48.8555 55.7461C48.7383 55.8438 48.6504 56.0195 48.5918 56.2734C48.5332 56.5273 48.4844 56.918 48.4453 57.4453ZM18.2988 50.0039C18.4551 49.7305 18.5332 49.5352 18.5332 49.418C18.5332 49.2617 18.4551 49.1152 18.2988 48.9785V50.0039ZM34.8516 35.7363L34.9688 34.7988C34.6172 35.0332 34.4316 35.209 34.4121 35.3262C34.4121 35.4238 34.5586 35.5605 34.8516 35.7363ZM35.7891 35.4141C35.8086 35.4141 35.8281 35.4043 35.8477 35.3848C35.8672 35.3457 35.8965 35.3066 35.9355 35.2676C35.9941 35.2285 36.043 35.1895 36.082 35.1504C35.9258 34.9355 35.7891 34.8281 35.6719 34.8281C35.6133 34.8281 35.5645 34.8574 35.5254 34.916C35.4863 34.9746 35.4473 35.0137 35.4082 35.0332L35.7891 35.4141ZM18.8848 47.1621L19.2656 46.2539L19.1484 46.166L18.709 47.0742L18.8848 47.1621ZM19.207 50.2969C19.3047 50.2969 19.4316 50.2578 19.5879 50.1797L18.7969 49.7402C18.875 50.1113 19.0117 50.2969 19.207 50.2969ZM33.0352 35.6191C33.4062 35.6191 33.6113 35.5703 33.6504 35.4727C33.6895 35.3555 33.709 35.2578 33.709 35.1797C33.709 35.043 33.6797 34.8965 33.6211 34.7402L33.0352 35.6191ZM38.0742 35.8242L38.2207 35.6484L37.6348 35.1211L37.459 35.2969L38.0742 35.8242ZM49.3535 50.3262L49.5586 49.8867C49.5 49.9258 49.4414 49.9551 49.3828 49.9746C49.3438 49.9941 49.3242 50.0137 49.3242 50.0332L49.3535 50.3262ZM36.375 68.3145C36.2188 68.3145 36.0527 68.207 35.877 67.9922L36.7266 67.7871C36.5508 68.1191 36.4336 68.2949 36.375 68.3145ZM25.0957 85.1309C24.3926 85.0527 23.9629 85.0137 23.8066 85.0137C23.084 85.0137 22.459 84.8672 21.9316 84.5742C21.7754 84.5742 21.6777 84.5938 21.6387 84.6328C21.5605 84.75 21.4922 84.8086 21.4336 84.8086C21.3164 84.8086 21.1504 84.7012 20.9355 84.4863C20.4082 84.0176 19.9688 83.5586 19.6172 83.1094C19.4023 82.7969 18.9824 82.582 18.3574 82.4648C17.752 82.3477 17.3613 82.0742 17.1855 81.6445C17.459 81.2344 17.7324 81.0293 18.0059 81.0293C18.1426 81.0293 18.3086 81.0684 18.5039 81.1465C17.8398 80.3066 17.4688 79.7988 17.3906 79.623C17.0781 79.1348 16.9023 78.6855 16.8633 78.2754C16.8633 76.127 16.3652 74.1055 15.3691 72.2109C15.3301 72.3867 15.2812 72.5234 15.2227 72.6211C15.1836 72.6992 15.1152 72.7773 15.0176 72.8555C14.9199 72.9141 14.7734 73.0117 14.5781 73.1484C14.8711 72.543 15.0176 72.0742 15.0176 71.7422C15.0176 71.0586 14.9395 70.043 14.7832 68.6953C14.7441 68.3438 14.7246 67.9824 14.7246 67.6113C14.7246 66.5957 14.8711 65.5898 15.1641 64.5938C15.3398 63.9883 15.4473 63.3633 15.4863 62.7188C15.6426 60.8438 15.9355 58.998 16.3652 57.1816C16.3848 57.123 16.4043 56.9766 16.4238 56.7422C16.4238 56.625 16.375 56.5078 16.2773 56.3906C16.1992 56.2734 16.1602 56.166 16.1602 56.0684C16.1602 55.834 16.3359 55.6582 16.6875 55.541C16.4922 55.1309 16.3945 54.7109 16.3945 54.2812C16.3945 53.9102 16.4727 53.5391 16.6289 53.168C16.6875 53.0117 16.7363 52.5137 16.7754 51.6738L17.2734 52.2305L17.4492 52.2012L17.1562 48.9785L17.2441 48.9492C17.4004 48.9883 17.5273 49.0078 17.625 49.0078C17.7617 49.0078 17.8594 48.8809 17.918 48.627C17.918 48.5488 17.8789 48.5098 17.8008 48.5098L17.5664 48.5391C17.4688 48.5391 17.4102 48.5098 17.3906 48.4512C17.3906 48.373 17.3613 48.3145 17.3027 48.2754C17.2637 48.2168 17.2344 48.168 17.2148 48.1289C17.3906 47.8555 17.5566 47.5723 17.7129 47.2793C18.0645 46.5371 18.582 45.8926 19.2656 45.3457C19.0312 45.3457 18.7969 45.3262 18.5625 45.2871C18.5625 44.877 18.8652 44.6719 19.4707 44.6719C19.4707 44.457 19.4609 44.2617 19.4414 44.0859C19.4219 43.8906 19.4121 43.7051 19.4121 43.5293C19.4121 42.7676 19.6074 42.0156 19.998 41.2734L20.291 40.6582C20.4082 40.6582 20.6035 40.6777 20.877 40.7168C21.0137 40.6191 21.1309 40.502 21.2285 40.3652C21.5801 39.6035 22.0879 38.9492 22.752 38.4023C22.9277 38.2266 23.0645 37.9629 23.1621 37.6113C23.2012 37.4355 23.2598 37.2695 23.3379 37.1133C24.334 37.0156 25.0859 36.4492 25.5938 35.4141L27.8203 36.0879C27.6641 35.7949 27.498 35.5117 27.3223 35.2383C27.3613 35.1406 27.4004 35.0234 27.4395 34.8867C27.4785 34.7305 27.5273 34.584 27.5859 34.4473L29.3438 33.7441L29.8418 34.8281C29.8027 34.8477 29.7539 34.8965 29.6953 34.9746C29.6367 35.0527 29.5684 35.1113 29.4902 35.1504C29.4316 35.1895 29.373 35.209 29.3145 35.209C29.2363 35.209 29.1484 35.1992 29.0508 35.1797C28.9727 35.1406 28.9043 35.1211 28.8457 35.1211C28.6309 35.1211 28.5234 35.2871 28.5234 35.6191C28.6602 35.6582 28.8066 35.6777 28.9629 35.6777C29.1387 35.6777 29.4512 35.5996 29.9004 35.4434C30.2324 35.3066 30.5742 35.1992 30.9258 35.1211C31.7656 34.9258 32.3516 34.6035 32.6836 34.1543C32.8203 33.9785 33.0254 33.8906 33.2988 33.8906C33.6504 33.8906 33.9531 33.9688 34.207 34.125C34.5977 34.3594 35.0078 34.4766 35.4375 34.4766C35.6328 34.4766 35.8281 34.4473 36.0234 34.3887C35.9062 34.1543 35.7891 34.0176 35.6719 33.9785C35.5742 33.9199 35.4375 33.8613 35.2617 33.8027C35.6328 33.334 35.877 33.0898 35.9941 33.0703C36.1113 33.0703 36.3164 33.2363 36.6094 33.5684C37.1953 33.998 37.7715 34.418 38.3379 34.8281C38.9043 35.2383 39.2656 35.5215 39.4219 35.6777C39.6758 35.9316 39.8418 36.2734 39.9199 36.7031L40.2715 35.0332C40.9746 35.2676 41.3945 36 41.5312 37.2305L42.6152 36.6445L42.0586 36.0293C42.1953 35.8145 42.3809 35.707 42.6152 35.707C42.6934 35.707 42.7812 35.7168 42.8789 35.7363C42.9766 35.7559 43.084 35.7656 43.2012 35.7656C43.4941 35.707 43.7676 35.6777 44.0215 35.6777C45.2129 35.6777 46.4727 36.3711 47.8008 37.7578C48.0742 38.3242 48.3379 38.9004 48.5918 39.4863C49.2363 40.3848 49.6562 41.0098 49.8516 41.3613C50.0664 41.7129 50.3496 42.0254 50.7012 42.2988C50.9746 42.5137 51.5703 43.0996 52.4883 44.0566C52.5859 44.1543 52.6348 44.252 52.6348 44.3496C52.6348 44.4082 52.5957 44.5547 52.5176 44.7891C52.5176 44.8086 52.5078 44.8184 52.4883 44.8184C51.7461 44.5254 51.3164 44.3203 51.1992 44.2031C51.1602 44.1641 51.1309 44.1445 51.1113 44.1445C50.9551 44.2812 50.8379 44.3496 50.7598 44.3496C50.6816 44.3496 50.6133 44.3203 50.5547 44.2617C50.5156 44.1836 50.4766 44.0957 50.4375 43.998C50.418 43.8809 50.3789 43.7832 50.3203 43.7051C49.9492 43.7832 49.7637 43.959 49.7637 44.2324L49.8516 44.7598C49.8516 44.877 49.832 45.0137 49.793 45.1699C49.7148 45.5605 49.6758 45.9316 49.6758 46.2832C49.6758 46.8496 49.793 47.3379 50.0273 47.748C50.1641 48.0605 50.2324 48.4219 50.2324 48.832L50.291 49.623C50.7598 49.7402 51.0234 50.1016 51.082 50.707C51.1211 51 51.2383 51.293 51.4336 51.5859C51.5117 51.7031 51.5801 51.8301 51.6387 51.9668L51.5508 52.4941C51.5117 53.002 51.3945 53.3535 51.1992 53.5488C50.9453 53.8223 50.8184 54.1641 50.8184 54.5742L50.877 55.1895C50.877 56.0098 50.5547 56.6152 49.9102 57.0059C49.5586 57.2207 49.2461 57.4844 48.9727 57.7969C48.5625 58.1875 48.3477 58.4609 48.3281 58.6172C48.3281 58.7539 48.3281 58.832 48.3281 58.8516C48.3281 59.125 48.5039 59.5254 48.8555 60.0527L47.5078 61.8984C47.332 61.7031 47.2441 61.5176 47.2441 61.3418C47.2441 61.127 47.293 60.9219 47.3906 60.7266C47.5078 60.5117 47.5762 60.2969 47.5957 60.082L46.3359 60.2578L46.1602 60.6387C46.0039 61.0293 45.7793 61.3027 45.4863 61.459C45.4277 61.4785 45.3691 61.6445 45.3105 61.957C45.3105 62.0742 45.3008 62.1719 45.2812 62.25H44.9297C44.7344 62.25 44.4414 62.4453 44.0508 62.8359L44.1094 62.8066L44.0801 62.8359L44.7539 62.9531L43.7871 63.3926L44.0215 62.8945L42.6445 64.5938C42.6445 64.5742 42.625 64.5547 42.5859 64.5352C42.5469 64.5156 42.4883 64.4766 42.4102 64.418L41.8828 65.0332L41.5605 64.5059C41.4629 64.5645 41.3848 64.6328 41.3262 64.7109C41.209 64.9062 41.0625 65.0039 40.8867 65.0039C40.7109 65.0039 40.5352 65.1797 40.3594 65.5312C40.3008 65.668 40.2324 65.7949 40.1543 65.9121C39.9785 65.9121 39.8711 65.9023 39.832 65.8828C39.6562 65.8047 39.4902 65.7656 39.334 65.7656C39.002 65.7656 38.7285 65.9707 38.5137 66.3809C38.1621 66.9668 37.6445 67.2793 36.9609 67.3184C36.707 67.3965 36.3359 67.6113 35.8477 67.9629L35.4961 67.8457C35.3203 67.8457 35.2324 67.9824 35.2324 68.2559C35.1934 68.7246 34.998 68.959 34.6465 68.959H34.4707C34.3926 68.1582 34.334 67.6602 34.2949 67.4648C34.4902 67.3672 34.6367 67.3184 34.7344 67.3184C34.832 67.3184 35.1055 67.4746 35.5547 67.7871L35.4668 66.9375C33.8457 66.6836 32.8594 66.5469 32.5078 66.5273C32.1562 66.5078 31.8047 66.4199 31.4531 66.2637C30.9844 66.0879 30.6426 66 30.4277 66C30.252 66 30.0664 66.0391 29.8711 66.1172C29.8711 66.1953 29.8906 66.2734 29.9297 66.3516C29.9688 66.4102 29.9883 66.4883 29.9883 66.5859C29.832 66.8008 29.6367 66.9082 29.4023 66.9082C29.3047 66.9082 29.1875 66.8887 29.0508 66.8496C28.9141 66.791 28.7676 66.7617 28.6113 66.7617L28.3477 68.373C28.7383 68.5293 29.0508 68.6074 29.2852 68.6074C29.4219 68.6074 29.5781 68.5781 29.7539 68.5195L29.9883 68.4902C30.3008 68.4902 30.584 68.666 30.8379 69.0176C30.5449 69.2324 30.0273 69.3398 29.2852 69.3398C28.8164 69.3398 28.5137 69.3887 28.377 69.4863C28.2598 69.584 28.1035 70.0039 27.9082 70.7461C27.8691 70.9805 27.8105 71.1953 27.7324 71.3906C27.4785 72.0742 27.3516 72.7676 27.3516 73.4707C27.3516 73.998 27.4199 74.5254 27.5566 75.0527C27.7129 75.6777 27.791 76.3125 27.791 76.957C27.791 77.7188 27.6738 78.5098 27.4395 79.3301C27.3223 79.6426 27.2637 79.9258 27.2637 80.1797L27.293 80.8535C27.293 81.459 26.9707 82.5332 26.3262 84.0762C26.1113 84.7793 25.7012 85.1309 25.0957 85.1309ZM32.0098 34.2715C31.6582 34.1348 31.4043 34.0176 31.248 33.9199C31.3262 33.8613 31.3945 33.793 31.4531 33.7148C31.5312 33.6367 31.5996 33.5781 31.6582 33.5391C31.7168 33.4805 31.7754 33.4512 31.834 33.4512C31.9902 33.4902 32.0684 33.5781 32.0684 33.7148C32.0684 33.7734 32.0586 33.8418 32.0391 33.9199C32.0195 33.998 32.0098 34.0957 32.0098 34.2129V34.2715ZM33.0352 33.6562L33.0938 33.1289L34.0605 33.1875V33.3926L33.0352 33.6562ZM16.0723 53.0215L15.8965 52.4941L16.1016 52.4062L16.3359 52.9043L16.0723 53.0215ZM48.8262 38.5488L48.5332 38.0508L48.6504 37.9629L49.0312 38.4023L48.8262 38.5488ZM35.877 67.9922H35.8184L35.8477 67.9629L35.877 67.9922Z" fill="black"/>
<path d="M70.7109 81.2051C68.6602 81.2051 67.2051 80.9902 66.3457 80.5605C66.0332 80.4238 65.7207 80.3066 65.4082 80.209C63.748 79.6035 62.8496 79.3008 62.7129 79.3008C62.3613 79.1641 62.1465 79.0566 62.0684 78.9785C61.9902 78.8809 61.873 78.7441 61.7168 78.5684C61.4238 78.6074 61.2773 78.6953 61.2773 78.832C61.2773 78.9492 61.3164 79.1348 61.3945 79.3887L61.4238 79.5352L61.3945 79.6523H60.0469L60.3691 78.3633L59.373 78.041L58.8164 77.8945C58.6211 77.6992 58.5234 77.5234 58.5234 77.3672L58.7285 76.8691C58.8652 76.6934 58.9336 76.5371 58.9336 76.4004L58.9043 76.2246C58.7871 75.8535 58.709 75.4727 58.6699 75.082L58.6113 74.584L57.8203 74.4961C57.9766 73.7539 58.2891 73.1484 58.7578 72.6797C59.2266 72.0742 59.7051 71.4785 60.1934 70.8926C61.4824 69.291 62.7422 67.6602 63.9727 66C64.6562 65.043 65.3691 64.1055 66.1113 63.1875C66.6582 62.543 67.3711 61.8691 68.25 61.166C69.0898 60.4238 69.7734 59.5547 70.3008 58.5586L72.4395 54.6328C73.3379 53.0898 73.8652 52.0742 74.0215 51.5859C73.6504 51.4492 73.2891 51.3809 72.9375 51.3809C72.6055 51.3809 72.293 51.4395 72 51.5566C70.9844 51.9668 69.9395 52.1914 68.8652 52.2305L67.8398 52.3477C67.3125 52.3867 66.7754 52.4062 66.2285 52.4062L64.998 52.377C63.9043 52.377 63.1133 51.9961 62.625 51.2344C62.5469 51.0781 62.4883 50.9219 62.4492 50.7656C62.293 50.3164 62.0879 50.0039 61.834 49.8281C61.7754 49.7891 61.7461 49.6328 61.7461 49.3594L61.8926 48.5977C62.3418 46.4297 62.7031 45.209 62.9766 44.9355C63.7188 44.1152 64.7637 43.4902 66.1113 43.0605C67.3613 42.6895 68.6016 42.5039 69.832 42.5039C70.5547 42.5039 71.2871 42.5527 72.0293 42.6504L72.5566 42.6797C73.3184 42.6797 74.0703 42.5332 74.8125 42.2402C77.6055 41.0879 79.8125 40.3652 81.4336 40.0723C82.4102 39.9355 83.3184 39.5938 84.1582 39.0469C84.2754 38.9688 84.4414 38.9102 84.6562 38.8711C84.7539 38.8711 84.8613 38.8516 84.9785 38.8125V39.3984C85.1738 39.457 85.3789 39.4863 85.5938 39.4863C85.7305 39.4863 85.8672 39.4766 86.0039 39.457C86.1602 39.418 86.3066 39.3984 86.4434 39.3984C86.9512 39.3984 87.3516 39.5938 87.6445 39.9844L86.7949 40.7461L86.502 41.0391C86.7559 41.1953 87.0684 41.2734 87.4395 41.2734C87.7324 41.2148 88.0254 41.127 88.3184 41.0098C88.6309 40.873 88.9824 40.8047 89.373 40.8047C89.4121 40.8633 89.4414 40.9121 89.4609 40.9512C89.5 40.9902 89.5195 41.0293 89.5195 41.0684C89.4414 41.3809 89.4023 41.6348 89.4023 41.8301C89.4023 41.9863 89.4316 42.1035 89.4902 42.1816C89.6074 42.3574 89.9492 42.4746 90.5156 42.5332C91.1016 42.5723 91.668 42.5918 92.2148 42.5918L92.5957 42.6797L92.7715 42.709C92.7715 42.8848 92.6348 43.041 92.3613 43.1777C92.0879 43.3145 91.9512 43.4609 91.9512 43.6172C91.9512 43.6758 91.9707 43.7637 92.0098 43.8809L90.8672 44.9062H91.7754L91.834 45.0234L90.5742 45.6387L90.5449 45.9902L90.5156 46.8105C90.5352 47.0254 90.584 47.2695 90.6621 47.543C90.7012 47.6992 90.7305 47.8652 90.75 48.041C90.6133 48.1973 90.4668 48.2754 90.3105 48.2754H89.5781C89.4414 48.2559 89.2461 48.2461 88.9922 48.2461L89.9297 49.1543C89.2852 49.9355 88.4844 50.3457 87.5273 50.3848C87 50.3848 86.6094 50.707 86.3555 51.3516L85.8574 52.9922C85.6816 53.6172 85.4863 54.2324 85.2715 54.8379C85.0957 55.3262 84.959 55.8145 84.8613 56.3027C84.6074 57.6504 84.0996 58.7344 83.3379 59.5547C83.1426 59.75 82.9668 59.9453 82.8105 60.1406C81.3848 62.0547 79.6855 63.6855 77.7129 65.0332C77.498 65.1699 77.2539 65.2871 76.9805 65.3848C76.5703 65.5215 76.2676 65.6875 76.0723 65.8828C75.1348 66.5664 74.2949 67.3281 73.5527 68.168C73.2207 68.5977 72.6641 69.5547 71.8828 71.0391C71.7852 71.2148 71.668 71.3809 71.5312 71.5371C71.1992 71.9863 71.0137 72.3184 70.9746 72.5332C70.9746 72.7871 70.9941 72.9531 71.0332 73.0312C71.1504 73.1484 71.375 73.207 71.707 73.207C71.9219 73.207 72.7227 73.0605 74.1094 72.7676C77.1367 72.1816 79.7832 71.8887 82.0488 71.8887H82.7812C83.2305 71.8887 83.6699 71.8105 84.0996 71.6543C84.5293 71.4785 84.998 71.3906 85.5059 71.3906C85.8379 71.3906 86.1797 71.3613 86.5312 71.3027L86.2676 71.8301C86.3652 71.8105 86.4727 71.8008 86.5898 71.8008C86.7852 71.7812 86.9805 71.752 87.1758 71.7129C87.3711 71.6738 87.6348 71.6543 87.9668 71.6543C88.2402 71.6934 88.4941 71.8301 88.7285 72.0645C88.9824 72.2793 89.2754 72.4551 89.6074 72.5918C90.0957 72.7871 90.5059 73.1289 90.8379 73.6172C90.9551 73.7539 91.0234 73.8516 91.043 73.9102V74.0273C91.043 74.1641 90.9355 74.291 90.7207 74.4082C90.6621 74.4668 90.6328 74.5449 90.6328 74.6426C90.5352 74.916 90.418 75.1895 90.2812 75.4629L89.4316 77.4258C89.6074 77.543 89.8125 77.6992 90.0469 77.8945L89.3145 78.5391C88.2402 79.5742 87.3223 80.0918 86.5605 80.0918C86.1895 80.0918 85.8379 80.0625 85.5059 80.0039C85.0957 79.9258 84.6758 79.8867 84.2461 79.8867C83.5039 79.8867 82.7812 80.0039 82.0781 80.2383C81.668 80.3945 81.2969 80.4727 80.9648 80.4727C80.6914 80.4727 80.418 80.4043 80.1445 80.2676C80.125 80.248 80.0664 80.2383 79.9688 80.2383C79.9688 80.2578 79.5391 80.3066 78.6797 80.3848C77.0195 80.5215 75.3691 80.7168 73.7285 80.9707C72.7324 81.127 71.7266 81.2051 70.7109 81.2051ZM58.9336 79.7695L58.084 78.9492L58.4355 78.2754H58.7285L58.9336 79.7695Z" fill="#57BFC1"/>
</svg>
